<svg width="133" height="110" viewBox="0 0 133 110" fill="none" xmlns="http://www.w3.org/2000/svg">
<path d="M89.9416 26.4882C91.2953 22.4639 96.4697 22.4639 97.8235 26.4882L102.225 39.5713C104.991 47.7952 110.886 54.2792 118.362 57.3223L130.256 62.1635C133.914 63.6526 133.914 69.3445 130.256 70.8336L118.362 75.6748C110.886 78.7179 104.991 85.2019 102.225 93.4258L97.8235 106.509C96.4697 110.533 91.2953 110.533 89.9416 106.509L85.5405 93.4259C82.774 85.202 76.8794 78.7179 69.4032 75.6748L57.5094 70.8336C53.851 69.3445 53.851 63.6526 57.5094 62.1635L69.4032 57.3223C76.8794 54.2792 82.774 47.7952 85.5405 39.5713L89.9416 26.4882Z" fill="#FFC600"/>
<path d="M24.6232 48.5867C25.5708 46.3917 29.1929 46.3917 30.1405 48.5867L33.2212 55.7229C35.1578 60.2087 39.284 63.7455 44.5174 65.4054L52.843 68.046C55.4039 68.8582 55.4039 71.9629 52.843 72.7751L44.5174 75.4158C39.284 77.0757 35.1578 80.6124 33.2212 85.0982L30.1405 92.2344C29.1929 94.4295 25.5708 94.4295 24.6232 92.2344L21.5424 85.0982C19.6059 80.6124 15.4797 77.0757 10.2463 75.4158L1.92068 72.7751C-0.640223 71.9629 -0.640226 68.8582 1.92067 68.046L10.2463 65.4054C15.4797 63.7455 19.6059 60.2087 21.5424 55.723L24.6232 48.5867Z" fill="#FFC600"/>
<path d="M44.5782 1.64629C45.3905 -0.548763 48.4951 -0.548766 49.3074 1.64629L51.948 8.78252C53.6079 13.2683 57.1446 16.805 61.6304 18.4649L68.7666 21.1056C70.9617 21.9178 70.9617 25.0225 68.7666 25.8347L61.6304 28.4753C57.1446 30.1352 53.6079 33.672 51.948 38.1577L49.3074 45.294C48.4951 47.489 45.3905 47.489 44.5782 45.294L41.9376 38.1578C40.2777 33.672 36.7409 30.1352 32.2552 28.4754L25.1189 25.8347C22.9239 25.0225 22.9239 21.9178 25.1189 21.1056L32.2552 18.4649C36.7409 16.805 40.2777 13.2683 41.9376 8.78253L44.5782 1.64629Z" fill="#FFC600"/>
</svg>
